<svg xmlns="http://www.w3.org/2000/svg" fill="none" viewBox="0 0 132 61"><g fill="#004587" clip-path="url(#a)"><path fill-rule="evenodd" d="M130.215 1.723h-2.067l-1.543 5.589h1.427l.244-.971h1.84l.273.971h1.392l-1.566-5.59Zm-1.002 3.536h-.646l.617-2.425h.029l.629 2.425h-.629ZM123.721 3.461c0-1.774-.954-1.785-2.276-1.785-1.502 0-2.433.279-2.433 2.134v1.443c0 1.814.821 2.105 2.433 2.105 1.84 0 2.276-.343 2.276-2.222v-.988h-2.328v1.035h.937c0 .78-.181.942-.885.942-.71 0-1.019-.105-1.019-1.087v-.914c.012-.895.041-1.227 1.019-1.227.413 0 .862-.011.885.564h1.391Z" clip-rule="evenodd"/><path d="M126.011 1.723h-1.363v5.589h1.363v-5.59Z"/><path fill-rule="evenodd" d="M115.951 1.676c-1.391 0-2.369.331-2.369 2.053V5.31c0 1.71.978 2.041 2.369 2.041 1.392 0 2.37-.331 2.37-2.041V3.729c0-1.722-.978-2.053-2.37-2.053Zm.967 3.472c0 .832-.256.919-.967.919-.71 0-.937-.087-.966-.919V3.88c.023-.832.256-.907.966-.907.705 0 .967.075.967.907v1.268ZM110.87 1.723h-1.362v5.595h3.498V6.015h-2.136V1.723ZM106.264 1.676c-1.392 0-2.381.331-2.381 2.053V5.31c0 1.71.989 2.041 2.381 2.041 1.391 0 2.369-.331 2.369-2.041V3.729c0-1.722-.978-2.053-2.369-2.053Zm.966 3.472c0 .832-.256.919-.966.919s-.937-.087-.967-.919V3.88c.024-.832.257-.907.967-.907s.966.075.966.907v1.268ZM76.901 2.938h2.329V1.723h-3.703v5.595h3.755V6.09h-2.38V5.003h2.188V3.956h-2.189V2.938ZM85.738 3.014h1.38V1.723h-4.052v1.29h1.31v4.305h1.362V3.014ZM89.17 2.938h2.33V1.723h-3.703v5.595h3.755V6.09H89.17V5.003h2.189V3.956h-2.19V2.938ZM95.593 5.195v.168c0 .652-.285.704-.85.704-.81 0-.85-.332-.85-1.163v-.867c0-.802.076-1.058.85-1.058.477 0 .786.04.838.535v.215h1.415v-.215c-.03-1.687-.681-1.838-2.096-1.838-1.502 0-2.416.267-2.416 2.117v1.442c0 2.042 1.03 2.117 2.416 2.117.594 0 1.159.012 1.636-.407.466-.419.466-.971.466-1.582v-.168h-1.409ZM99.165 3.014h.053l1.449 4.304h2.329V1.723h-1.362l.075 4.292h-.052l-1.461-4.292h-2.317v5.595h1.374l-.088-4.304ZM72.504 1.723H69.902v5.589H72.685c1.426 0 1.88-.727 1.88-2.262V3.898c-.005-1.6-.634-2.175-2.06-2.175Zm.652 3.332c0 .588-.18.96-.692.96H71.265V3.014H72.463c.489 0 .692.151.692.878v1.163ZM64.257 0l-.501.332-.885.564.192.46.693-.233.85-.291-.35-.832ZM64.758 1.723H62.69l-1.543 5.589h1.427l.244-.971h1.84l.267.971h1.392l-1.56-5.59Zm-1.002 3.536h-.646l.629-2.425h.012l.628 2.425h-.623ZM59.191 1.723v3.629c0 .651-.192.715-.774.715-.577 0-.914-.011-.914-.651V1.723H56.14V5.45c0 1.338.22 1.902 2.276 1.902 1.49 0 2.136-.419 2.136-1.902V1.723h-1.362ZM53.994 1.723H51.91l-1.543 5.589h1.426l.257-.971h1.839l.256.971h1.403l-1.554-5.59ZM52.98 5.259h-.629l.617-2.425h.012l.629 2.425h-.629ZM44.683 3.025h.047l1.316 4.293h1.181l1.299-4.293h.04l-.128 4.293H49.8V1.723h-2.223l-.926 3.513H46.6l-.978-3.513h-2.16v5.595h1.362l-.14-4.293Z" clip-rule="evenodd"/><path d="M1.597 1.723H.234v5.589h1.363v-5.59Z"/><path fill-rule="evenodd" d="M37.115 1.676c-1.39 0-2.369.331-2.369 2.053V5.31c0 1.71.978 2.041 2.37 2.041 1.39 0 2.363-.331 2.363-2.041V3.729c.006-1.722-.972-2.053-2.364-2.053Zm.967 3.472c0 .832-.256.919-.967.919-.71 0-.937-.087-.966-.919V3.88c.023-.832.256-.907.966-.907.705 0 .967.075.967.907v1.268ZM3.966 3.014h.064l1.438 4.304h2.34V1.723H6.434l.088 4.292h-.064L4.99 1.723H2.68v5.595h1.374l-.088-4.304ZM10.648 3.866c-.361-.023-.553-.052-.553-.5 0-.308.052-.47.797-.47.541 0 .757 0 .757.575h1.31v-.233c0-1.547-.95-1.57-2.073-1.57-1.339 0-2.171.105-2.171 1.71 0 1.594.745 1.594 2.008 1.687l.297.023c.64.052.722.04.722.523 0 .471-.204.512-.85.512-.67 0-.861-.052-.861-.64H8.72c0 1.838.861 1.862 2.171 1.862 2.253 0 2.212-.908 2.212-1.827 0-1.29-.372-1.494-1.892-1.622l-.564-.03ZM16.293 3.014h1.38V1.723h-4.064v1.29h1.31v4.305h1.374V3.014Z" clip-rule="evenodd"/><path d="M19.706 1.723h-1.362v5.589h1.362v-5.59Z"/><path fill-rule="evenodd" d="M23.065 3.014h1.385V1.723h-4.063v1.29h1.31v4.305h1.368V3.014ZM28.172 1.723v3.629c0 .651-.193.715-.775.715-.582 0-.902-.011-.902-.651V1.723H25.12V5.45c0 1.338.221 1.902 2.276 1.902 1.502 0 2.148-.419 2.148-1.902V1.723h-1.373ZM32.904 3.014h1.374V1.723h-4.063v1.29h1.31v4.305h1.38V3.014ZM124.955 25.074l-1.677.971-2.876 1.687.629 1.367 2.247-.704 2.783-.866-1.106-2.455ZM126.575 30.18H119.794l-5.001 16.57h4.628l.821-2.844h5.99l.873 2.844h4.541l-5.071-16.57Zm-3.294 10.498h-2.073l2.02-7.177h.053l2.072 7.177h-2.072ZM108.738 30.18v10.748c0 1.954-.64 2.105-2.532 2.105-1.863 0-2.946-.023-2.946-1.901V30.18h-4.448v11.045c0 3.984.71 5.67 7.394 5.67 4.901 0 6.997-1.25 6.997-5.67V30.18h-4.465ZM62.126 34.047h.14l4.267 12.703h3.848l4.232-12.703h.151l-.448 12.703h4.465V30.18H71.54l-3.038 10.405h-.152L65.182 30.18h-7.06v16.57h4.453l-.449-12.703ZM92.107 30.18H85.342l-5.018 16.57h4.646l.82-2.844H91.77l.873 2.844h4.541l-5.076-16.57Zm-3.295 10.498h-2.073l2.038-7.177h.04l2.073 7.177h-2.078Z" clip-rule="evenodd"/><path d="M132.002 54.73H56.824V61h75.178v-6.27ZM132.002 15.438H56.824v6.27h75.178v-6.27Z"/><path fill-rule="evenodd" d="M22.96 22.434H7.05v31.57h31.82v-31.57H22.96Zm0 31.366c-8.656 0-15.705-7.008-15.705-15.587s7.05-15.576 15.706-15.576c8.644 0 15.706 6.997 15.706 15.576S31.605 53.8 22.96 53.8Z" clip-rule="evenodd"/><path fill-rule="evenodd" d="M22.96 15.438H0V61h45.92V15.438H22.96Zm0 45.255C10.484 60.693.297 50.596.297 38.213c0-12.37 10.187-22.485 22.663-22.485 12.475 0 22.65 10.115 22.65 22.486 0 12.382-10.175 22.48-22.65 22.48Z" clip-rule="evenodd"/></g><defs><clipPath id="a"><path fill="#fff" d="M0 0h132v61H0z"/></clipPath></defs></svg>